<svg width="248" height="384" viewBox="0 0 248 384" fill="none" xmlns="http://www.w3.org/2000/svg">
<path d="M107.107 219.01L14.7875 361.285L14.7875 57.5504L107.107 219.01Z" fill="#7087A1"/>
<path d="M239.204 39.9677V370.879H21.3682L239.204 39.9677Z" fill="#A4C5B3"/>
<path fill-rule="evenodd" clip-rule="evenodd" d="M247.784 1.04663V383.666H0V2.24623L116.347 202.953L247.784 1.04663ZM106.573 217.967L15.9861 61.6988V357.122L106.573 217.967ZM28.1882 367.68L231.798 54.9054V367.68H28.1882Z" fill="black"/>
<path d="M123.892 158.262L38.749 4.06504e-05H209.034L123.892 158.262Z" fill="white"/>
<path fill-rule="evenodd" clip-rule="evenodd" d="M123.892 158.262L209.034 4.06504e-05H38.749L123.892 158.262ZM123.892 124.52L182.281 15.9861H65.5019L123.892 124.52Z" fill="black"/>
</svg>
