<svg width="1672" height="594" viewBox="0 0 1672 594" fill="none" xmlns="http://www.w3.org/2000/svg">
<path d="M768.37 219.01L676.051 361.286V57.5513L768.37 219.01Z" fill="#7087A1"/>
<path d="M900.468 39.9685V370.88H682.631L900.468 39.9685Z" fill="#A4C5B3"/>
<path fill-rule="evenodd" clip-rule="evenodd" d="M909.047 1.04749V383.667H661.263V2.24708L777.61 202.954L909.047 1.04749ZM767.836 217.968L677.249 61.6997V357.123L767.836 217.968ZM689.451 367.68L893.061 54.9062V367.68H689.451Z" fill="black"/>
<path d="M785.155 158.263L700.012 0.000900269H870.297L785.155 158.263Z" fill="white"/>
<path fill-rule="evenodd" clip-rule="evenodd" d="M785.155 158.263L870.297 0.000900269H700.012L785.155 158.263ZM785.155 124.521L843.544 15.987H726.765L785.155 124.521Z" fill="black"/>
<path d="M4.2363 561.114C1.4121 561.114 0 559.702 0 556.877V462.32C0 459.496 1.4121 458.084 4.2363 458.084C6.2612 458.084 7.85981 459.016 9.03212 460.881L48.8374 521.708L46.9191 521.948L86.7243 460.881C87.8434 459.016 89.5219 458.084 91.7599 458.084C94.2644 458.084 95.5167 459.496 95.5167 462.32V556.877C95.5167 559.702 94.1312 561.114 91.3603 561.114C88.5361 561.114 87.124 559.702 87.124 556.877V470.713L89.6018 471.512L52.674 527.783C51.5017 529.594 49.8232 530.5 47.6384 530.5C45.7201 530.5 44.1748 529.594 43.0025 527.783L6.0747 471.512L8.39268 472.391V556.877C8.39268 559.702 7.00722 561.114 4.2363 561.114Z" fill="black"/>
<path d="M126.798 561.114C123.707 561.114 122.162 559.542 122.162 556.398V553.36C122.162 550.323 123.707 548.804 126.798 548.804H129.756C132.793 548.804 134.312 550.323 134.312 553.36V556.398C134.312 559.542 132.793 561.114 129.756 561.114H126.798Z" fill="black"/>
<path d="M194.044 561.114C192.233 561.114 190.927 560.154 190.128 558.236L148.644 464.078C147.951 462.533 147.951 461.254 148.644 460.242C149.39 459.229 150.403 458.59 151.681 458.323C153.866 457.79 155.385 458.59 156.237 460.721L196.203 551.362H193.245L232.97 460.721C233.823 458.59 235.368 457.79 237.606 458.323C238.992 458.59 240.004 459.229 240.644 460.242C241.283 461.254 241.283 462.533 240.644 464.078L199 558.236C198.201 560.154 196.842 561.114 194.924 561.114H194.044Z" fill="black"/>
<path d="M302.57 561.114C299.746 561.114 298.333 559.702 298.333 556.877V462.32C298.333 459.496 299.746 458.084 302.57 458.084C304.595 458.084 306.193 459.016 307.366 460.881L347.171 521.708L345.253 521.948L385.058 460.881C386.177 459.016 387.855 458.084 390.093 458.084C392.598 458.084 393.85 459.496 393.85 462.32V556.877C393.85 559.702 392.465 561.114 389.694 561.114C386.87 561.114 385.457 559.702 385.457 556.877V470.713L387.935 471.512L351.008 527.783C349.835 529.594 348.157 530.5 345.972 530.5C344.054 530.5 342.508 529.594 341.336 527.783L304.408 471.512L306.726 472.391V556.877C306.726 559.702 305.341 561.114 302.57 561.114Z" fill="black"/>
<path d="M452.708 475.668C450.736 473.963 450.549 472.071 452.148 469.993L465.896 453.767C467.601 451.636 469.466 451.476 471.491 453.288C473.463 454.94 473.649 456.805 472.051 458.883L458.303 475.109C456.597 477.24 454.732 477.427 452.708 475.668ZM450.39 561.114C440.425 561.114 433.125 558.822 428.489 554.24C423.853 549.604 421.535 542.33 421.535 532.419V514.354C421.535 504.283 423.853 496.956 428.489 492.374C433.125 487.738 440.425 485.473 450.39 485.58H463.498C473.463 485.58 480.736 487.898 485.319 492.533C489.955 497.116 492.273 504.39 492.273 514.354V532.259C492.273 542.223 489.955 549.524 485.319 554.16C480.736 558.796 473.463 561.114 463.498 561.114H450.39ZM429.927 532.419C429.927 539.932 431.419 545.208 434.403 548.245C437.441 551.229 442.77 552.721 450.39 552.721H463.498C471.118 552.721 476.42 551.229 479.404 548.245C482.388 545.208 483.88 539.879 483.88 532.259V514.354C483.88 506.734 482.388 501.432 479.404 498.448C476.42 495.464 471.118 493.972 463.498 493.972H450.39C445.274 493.919 441.224 494.532 438.24 495.811C435.256 497.09 433.125 499.221 431.846 502.205C430.567 505.189 429.927 509.239 429.927 514.354V532.419Z" fill="black"/>
<path d="M545.907 557.916C545.321 559.195 544.602 560.048 543.749 560.474C542.897 560.901 541.911 561.114 540.792 561.114C538.447 561.114 536.795 560.021 535.836 557.837L506.182 491.414C505.063 488.803 505.836 486.992 508.5 485.979C511.005 484.913 512.816 485.659 513.935 488.217L543.51 554.4H538.394L569.887 488.137C570.473 486.912 571.245 486.112 572.205 485.739C573.164 485.366 574.256 485.446 575.482 485.979C578.093 487.152 578.812 489.017 577.64 491.574L545.907 557.916Z" fill="black"/>
<path d="M600.091 526.584V532.419C600.091 539.932 601.583 545.208 604.568 548.245C607.605 551.229 612.934 552.721 620.554 552.721H633.662C640.376 552.721 645.252 551.868 648.289 550.163C651.38 548.405 653.218 545.394 653.805 541.131C654.018 539.799 654.444 538.786 655.083 538.094C655.776 537.401 656.815 537.055 658.201 537.055C659.586 537.055 660.625 537.454 661.318 538.254C662.064 539 662.357 540.065 662.197 541.451C661.505 548.165 658.814 553.121 654.124 556.318C649.435 559.515 642.614 561.114 633.662 561.114H620.554C610.589 561.114 603.289 558.822 598.653 554.24C594.017 549.604 591.699 542.33 591.699 532.419V514.354C591.699 504.283 594.017 496.956 598.653 492.374C603.289 487.738 610.589 485.473 620.554 485.58H633.662C643.627 485.58 650.9 487.898 655.483 492.533C660.119 497.116 662.437 504.39 662.437 514.354V522.347C662.437 525.172 661.052 526.584 658.281 526.584H600.091ZM620.554 493.972C612.934 493.866 607.605 495.331 604.568 498.368C601.583 501.352 600.091 506.681 600.091 514.354V518.191H654.044V514.354C654.044 506.734 652.552 501.432 649.568 498.448C646.584 495.464 641.282 493.972 633.662 493.972H620.554Z" fill="black"/>
<path d="M692.577 471.032C688.9 471.032 687.062 469.141 687.062 465.357V461.76C687.062 458.084 688.9 456.245 692.577 456.245H696.174C699.744 456.245 701.529 458.084 701.529 461.76V465.357C701.529 469.141 699.744 471.032 696.174 471.032H692.577ZM694.415 561.114C691.591 561.114 690.179 559.702 690.179 556.877V489.736C690.179 486.965 691.591 485.58 694.415 485.58C697.186 485.58 698.572 486.965 698.572 489.736V556.877C698.572 559.702 697.186 561.114 694.415 561.114Z" fill="black"/>
<path d="M744.973 560.954C738.418 560.954 733.409 559.568 729.946 556.797C726.482 553.973 724.404 549.684 723.711 543.929C723.551 542.543 723.844 541.477 724.59 540.731C725.336 539.932 726.429 539.532 727.867 539.532C729.2 539.532 730.185 539.879 730.825 540.572C731.518 541.264 731.971 542.303 732.184 543.689C732.663 546.993 733.862 549.311 735.781 550.643C737.752 551.922 740.816 552.561 744.973 552.561H771.19C776.145 552.561 779.556 551.629 781.421 549.764C783.286 547.899 784.218 544.488 784.218 539.532C784.218 534.524 783.286 531.087 781.421 529.221C779.556 527.356 776.145 526.424 771.19 526.424H745.292C738.365 526.424 733.196 524.772 729.786 521.468C726.429 518.111 724.75 512.969 724.75 506.042C724.75 498.955 726.429 493.759 729.786 490.455C733.143 487.098 738.312 485.42 745.292 485.42H770.39C782.433 485.42 789.121 490.748 790.453 501.406C790.666 502.791 790.373 503.884 789.574 504.683C788.828 505.429 787.762 505.802 786.376 505.802C785.044 505.802 784.032 505.456 783.339 504.763C782.7 504.07 782.247 503.058 781.98 501.725C781.607 498.741 780.515 496.69 778.703 495.571C776.945 494.399 774.174 493.812 770.39 493.812H745.292C740.656 493.812 737.459 494.665 735.701 496.37C733.995 498.075 733.143 501.299 733.143 506.042C733.143 510.571 734.022 513.715 735.781 515.473C737.539 517.179 740.71 518.031 745.292 518.031H771.19C778.543 518.031 783.952 519.79 787.416 523.307C790.879 526.77 792.611 532.179 792.611 539.532C792.611 546.833 790.879 552.241 787.416 555.758C783.952 559.222 778.543 560.954 771.19 560.954H744.973Z" fill="black"/>
<path d="M862.082 561.114C859.257 561.114 857.845 559.702 857.845 556.877V462.32C857.845 459.496 859.257 458.084 862.082 458.084H899.489C908.601 458.084 915.475 460.428 920.111 465.117C924.8 469.807 927.145 476.707 927.145 485.819V490.615C927.145 499.674 924.8 506.548 920.111 511.237C915.475 515.926 908.601 518.271 899.489 518.271H866.238V556.877C866.238 559.702 864.853 561.114 862.082 561.114ZM866.238 509.878H899.489C906.203 509.878 911.079 508.36 914.116 505.322C917.207 502.232 918.752 497.329 918.752 490.615V485.819C918.752 479.052 917.207 474.15 914.116 471.112C911.079 468.022 906.203 466.476 899.489 466.476H866.238V509.878Z" fill="black"/>
<path d="M969.435 561.114C961.869 561.114 956.3 559.355 952.73 555.838C949.213 552.321 947.455 546.806 947.455 539.293V454.407C947.455 451.636 948.867 450.25 951.691 450.25C954.462 450.25 955.847 451.636 955.847 454.407V539.293C955.847 544.462 956.807 548.005 958.725 549.923C960.643 551.788 964.187 552.721 969.356 552.721C972.233 552.721 973.672 554.106 973.672 556.877C973.725 559.702 972.313 561.114 969.435 561.114Z" fill="black"/>
<path d="M1013.31 561.114C1005 561.114 998.901 559.195 995.011 555.359C991.174 551.469 989.256 545.367 989.256 537.055C989.256 528.742 991.201 522.641 995.091 518.751C998.981 514.861 1005.06 512.916 1013.31 512.916H1049.68C1049.58 505.882 1047.98 500.979 1044.89 498.209C1041.85 495.384 1036.65 493.972 1029.3 493.972H1020.03C1013.26 493.972 1008.31 494.692 1005.16 496.13C1002.02 497.569 1000.07 500.02 999.327 503.484C998.954 504.816 998.448 505.802 997.808 506.441C997.222 507.027 996.263 507.321 994.931 507.321C993.545 507.321 992.453 506.948 991.654 506.202C990.908 505.402 990.641 504.337 990.854 503.004C991.547 496.93 994.291 492.507 999.087 489.736C1003.94 486.965 1010.92 485.58 1020.03 485.58H1029.3C1039.27 485.58 1046.54 487.898 1051.12 492.533C1055.76 497.116 1058.08 504.39 1058.08 514.354V556.877C1058.08 559.702 1056.69 561.114 1053.92 561.114C1051.1 561.114 1049.68 559.702 1049.68 556.877V548.964C1044.57 557.064 1035.43 561.114 1022.27 561.114H1013.31ZM1013.31 552.721H1022.27C1027.44 552.721 1031.97 552.161 1035.86 551.042C1039.8 549.87 1042.97 548.005 1045.37 545.447C1047.76 542.89 1049.2 539.479 1049.68 535.216V521.308H1013.31C1007.4 521.308 1003.3 522.454 1001.01 524.745C998.767 526.983 997.648 531.087 997.648 537.055C997.648 542.969 998.767 547.073 1001.01 549.364C1003.3 551.602 1007.4 552.721 1013.31 552.721Z" fill="black"/>
<path d="M1090.79 561.114C1087.96 561.114 1086.55 559.702 1086.55 556.877V489.736C1086.55 486.965 1087.96 485.58 1090.79 485.58C1093.56 485.58 1094.94 486.965 1094.94 489.736V497.409C1100.01 489.523 1109.17 485.58 1122.44 485.58H1126.92C1136.88 485.58 1144.16 487.898 1148.74 492.533C1153.37 497.116 1155.69 504.39 1155.69 514.354V556.877C1155.69 559.702 1154.31 561.114 1151.54 561.114C1148.71 561.114 1147.3 559.702 1147.3 556.877V514.354C1147.3 506.734 1145.78 501.432 1142.74 498.448C1139.76 495.464 1134.48 493.972 1126.92 493.972H1122.44C1114.18 493.972 1107.68 495.278 1102.94 497.889C1098.2 500.5 1095.53 504.576 1094.94 510.118V556.877C1094.94 559.702 1093.56 561.114 1090.79 561.114Z" fill="black"/>
<path d="M1190.36 526.584V532.419C1190.36 539.932 1191.85 545.208 1194.83 548.245C1197.87 551.229 1203.2 552.721 1210.82 552.721H1223.93C1230.64 552.721 1235.52 551.868 1238.56 550.163C1241.65 548.405 1243.48 545.394 1244.07 541.131C1244.28 539.799 1244.71 538.786 1245.35 538.094C1246.04 537.401 1247.08 537.055 1248.47 537.055C1249.85 537.055 1250.89 537.454 1251.58 538.254C1252.33 539 1252.62 540.065 1252.46 541.451C1251.77 548.165 1249.08 553.121 1244.39 556.318C1239.7 559.515 1232.88 561.114 1223.93 561.114H1210.82C1200.86 561.114 1193.55 558.822 1188.92 554.24C1184.28 549.604 1181.97 542.33 1181.97 532.419V514.354C1181.97 504.283 1184.28 496.956 1188.92 492.374C1193.55 487.738 1200.86 485.473 1210.82 485.58H1223.93C1233.89 485.58 1241.17 487.898 1245.75 492.533C1250.39 497.116 1252.7 504.39 1252.7 514.354V522.347C1252.7 525.172 1251.32 526.584 1248.55 526.584H1190.36ZM1210.82 493.972C1203.2 493.866 1197.87 495.331 1194.83 498.368C1191.85 501.352 1190.36 506.681 1190.36 514.354V518.191H1244.31V514.354C1244.31 506.734 1242.82 501.432 1239.83 498.448C1236.85 495.464 1231.55 493.972 1223.93 493.972H1210.82Z" fill="black"/>
<path d="M1282.84 471.032C1279.22 471.032 1277.41 469.141 1277.41 465.357V461.76C1277.41 458.084 1279.22 456.245 1282.84 456.245H1286.52C1290.09 456.245 1291.88 458.084 1291.88 461.76V465.357C1291.88 469.141 1290.09 471.032 1286.52 471.032H1282.84ZM1267.1 593.086C1265.76 593.086 1264.7 592.713 1263.9 591.967C1263.1 591.274 1262.7 590.235 1262.7 588.849C1262.7 587.464 1263.13 586.425 1263.98 585.732C1264.78 585.039 1265.82 584.693 1267.1 584.693C1272.21 584.693 1275.7 583.734 1277.57 581.816C1279.49 579.897 1280.45 576.38 1280.45 571.265V489.736C1280.45 486.965 1281.86 485.58 1284.68 485.58C1287.45 485.58 1288.84 486.965 1288.84 489.736V571.265C1288.84 578.725 1287.08 584.214 1283.56 587.73C1280.05 591.301 1274.56 593.086 1267.1 593.086Z" fill="black"/>
<path d="M1341.15 561.114C1332.84 561.114 1326.74 559.195 1322.85 555.359C1319.01 551.469 1317.09 545.367 1317.09 537.055C1317.09 528.742 1319.04 522.641 1322.93 518.751C1326.82 514.861 1332.89 512.916 1341.15 512.916H1377.52C1377.42 505.882 1375.82 500.979 1372.73 498.209C1369.69 495.384 1364.49 493.972 1357.14 493.972H1347.87C1341.1 493.972 1336.14 494.692 1333 496.13C1329.86 497.569 1327.91 500.02 1327.17 503.484C1326.79 504.816 1326.29 505.802 1325.65 506.441C1325.06 507.027 1324.1 507.321 1322.77 507.321C1321.38 507.321 1320.29 506.948 1319.49 506.202C1318.75 505.402 1318.48 504.337 1318.69 503.004C1319.39 496.93 1322.13 492.507 1326.93 489.736C1331.78 486.965 1338.76 485.58 1347.87 485.58H1357.14C1367.1 485.58 1374.38 487.898 1378.96 492.533C1383.6 497.116 1385.91 504.39 1385.91 514.354V556.877C1385.91 559.702 1384.53 561.114 1381.76 561.114C1378.93 561.114 1377.52 559.702 1377.52 556.877V548.964C1372.41 557.064 1363.27 561.114 1350.11 561.114H1341.15ZM1341.15 552.721H1350.11C1355.27 552.721 1359.8 552.161 1363.69 551.042C1367.64 549.87 1370.81 548.005 1373.21 545.447C1375.6 542.89 1377.04 539.479 1377.52 535.216V521.308H1341.15C1335.24 521.308 1331.14 522.454 1328.84 524.745C1326.61 526.983 1325.49 531.087 1325.49 537.055C1325.49 542.969 1326.61 547.073 1328.84 549.364C1331.14 551.602 1335.24 552.721 1341.15 552.721Z" fill="black"/>
<path d="M1441.09 561.114C1431.12 561.114 1423.82 558.796 1419.19 554.16C1414.55 549.524 1412.23 542.223 1412.23 532.259V514.354C1412.23 504.39 1414.55 497.116 1419.19 492.533C1423.82 487.898 1431.12 485.58 1441.09 485.58H1474.58V454.407C1474.58 451.636 1475.99 450.25 1478.81 450.25C1481.59 450.25 1482.97 451.636 1482.97 454.407V556.877C1482.97 559.702 1481.59 561.114 1478.81 561.114C1475.99 561.114 1474.58 559.702 1474.58 556.877V550.003C1472.29 553.68 1468.93 556.451 1464.51 558.316C1460.08 560.181 1454.3 561.114 1447.16 561.114H1441.09ZM1441.09 552.721H1447.16C1455.48 552.721 1462.11 551.415 1467.07 548.804C1472.07 546.14 1474.58 542.17 1474.58 536.895V493.972H1441.09C1433.47 493.972 1428.14 495.491 1425.1 498.528C1422.12 501.512 1420.63 506.788 1420.63 514.354V532.259C1420.63 539.879 1422.12 545.208 1425.1 548.245C1428.14 551.229 1433.47 552.721 1441.09 552.721Z" fill="black"/>
<path d="M1538.19 561.114C1528.23 561.114 1520.93 558.822 1516.29 554.24C1511.65 549.604 1509.34 542.33 1509.34 532.419V514.354C1509.34 504.283 1511.65 496.956 1516.29 492.374C1520.93 487.738 1528.23 485.473 1538.19 485.58H1551.3C1561.26 485.58 1568.54 487.898 1573.12 492.533C1577.76 497.116 1580.07 504.39 1580.07 514.354V532.259C1580.07 542.223 1577.76 549.524 1573.12 554.16C1568.54 558.796 1561.26 561.114 1551.3 561.114H1538.19ZM1517.73 532.419C1517.73 539.932 1519.22 545.208 1522.2 548.245C1525.24 551.229 1530.57 552.721 1538.19 552.721H1551.3C1558.92 552.721 1564.22 551.229 1567.21 548.245C1570.19 545.208 1571.68 539.879 1571.68 532.259V514.354C1571.68 506.734 1570.19 501.432 1567.21 498.448C1564.22 495.464 1558.92 493.972 1551.3 493.972H1538.19C1533.07 493.919 1529.03 494.532 1526.04 495.811C1523.06 497.09 1520.93 499.221 1519.65 502.205C1518.37 505.189 1517.73 509.239 1517.73 514.354V532.419Z" fill="black"/>
<path d="M1624.36 560.954C1617.81 560.954 1612.8 559.568 1609.33 556.797C1605.87 553.973 1603.79 549.684 1603.1 543.929C1602.94 542.543 1603.23 541.477 1603.98 540.731C1604.73 539.932 1605.82 539.532 1607.26 539.532C1608.59 539.532 1609.57 539.879 1610.21 540.572C1610.91 541.264 1611.36 542.303 1611.57 543.689C1612.05 546.993 1613.25 549.311 1615.17 550.643C1617.14 551.922 1620.21 552.561 1624.36 552.561H1650.58C1655.53 552.561 1658.94 551.629 1660.81 549.764C1662.67 547.899 1663.61 544.488 1663.61 539.532C1663.61 534.524 1662.67 531.087 1660.81 529.221C1658.94 527.356 1655.53 526.424 1650.58 526.424H1624.68C1617.75 526.424 1612.59 524.772 1609.17 521.468C1605.82 518.111 1604.14 512.969 1604.14 506.042C1604.14 498.955 1605.82 493.759 1609.17 490.455C1612.53 487.098 1617.7 485.42 1624.68 485.42H1649.78C1661.82 485.42 1668.51 490.748 1669.84 501.406C1670.06 502.791 1669.76 503.884 1668.96 504.683C1668.22 505.429 1667.15 505.802 1665.77 505.802C1664.43 505.802 1663.42 505.456 1662.73 504.763C1662.09 504.07 1661.64 503.058 1661.37 501.725C1661 498.741 1659.9 496.69 1658.09 495.571C1656.33 494.399 1653.56 493.812 1649.78 493.812H1624.68C1620.05 493.812 1616.85 494.665 1615.09 496.37C1613.38 498.075 1612.53 501.299 1612.53 506.042C1612.53 510.571 1613.41 513.715 1615.17 515.473C1616.93 517.179 1620.1 518.031 1624.68 518.031H1650.58C1657.93 518.031 1663.34 519.79 1666.8 523.307C1670.27 526.77 1672 532.179 1672 539.532C1672 546.833 1670.27 552.241 1666.8 555.758C1663.34 559.222 1657.93 560.954 1650.58 560.954H1624.36Z" fill="black"/>
</svg>
